<svg width="32" height="32" viewBox="0 0 32 32" fill="none" xmlns="http://www.w3.org/2000/svg">
<path d="M25.3036 7.85655C24.766 7.26797 24.1278 6.80107 23.4253 6.48251C22.7228 6.16396 21.9699 6 21.2095 6C20.4491 6 19.6961 6.16396 18.9936 6.48251C18.2912 6.80107 17.6529 7.26797 17.1153 7.85655L15.9997 9.07749L14.8841 7.85655C13.7983 6.66822 12.3256 6.00062 10.79 6.00062C9.25437 6.00062 7.78167 6.66822 6.69584 7.85655C5.61001 9.04489 5 10.6566 5 12.3372C5 14.0177 5.61001 15.6295 6.69584 16.8178L7.81147 18.0387L14.5233 25.3842C15.3163 26.252 16.6832 26.252 17.4762 25.3842L24.188 18.0387L25.3036 16.8178C25.8414 16.2295 26.268 15.531 26.5591 14.7622C26.8502 13.9934 27 13.1694 27 12.3372C27 11.505 26.8502 10.681 26.5591 9.91216C26.268 9.14336 25.8414 8.44486 25.3036 7.85655Z" stroke="#B9B8B8" stroke-width="2" stroke-linecap="round" stroke-linejoin="round"/>
</svg>
