<svg width="48" height="48" viewBox="0 0 48 48" fill="none" xmlns="http://www.w3.org/2000/svg">
<path d="M34.9634 18.2837C34.58 17.5848 34.0701 16.9804 33.4627 16.505C32.8553 16.0296 32.1623 15.6924 31.4234 15.5129C30.6845 15.3333 29.9142 15.3149 29.1563 15.4585C28.3985 15.6022 27.668 15.9052 27.0067 16.3502L25.6343 17.2732L24.8386 15.8233C24.064 14.4122 22.7906 13.4157 21.2985 13.0531C19.8063 12.6905 18.2176 12.9915 16.8819 13.8898C15.5461 14.7881 14.5728 16.2102 14.1759 17.8433C13.7791 19.4763 13.9913 21.1865 14.7658 22.5976L15.5616 24.0475L20.3491 32.77C20.9147 33.8006 22.243 34.1234 23.2185 33.4673L31.475 27.9145L32.8473 26.9915C33.5089 26.5469 34.0884 25.9689 34.5528 25.2905C35.0171 24.6122 35.3573 23.8468 35.5538 23.0382C35.7503 22.2295 35.7993 21.3934 35.698 20.5776C35.5967 19.7619 35.3471 18.9824 34.9634 18.2837Z" stroke="#B9B8B8" stroke-width="2" stroke-linecap="round" stroke-linejoin="round"/>
</svg>
