<svg width="48" height="48" viewBox="0 0 48 48" fill="none" xmlns="http://www.w3.org/2000/svg">
<path d="M33.3036 15.8566C32.766 15.268 32.1278 14.8011 31.4253 14.4825C30.7228 14.164 29.9699 14 29.2095 14C28.4491 14 27.6961 14.164 26.9936 14.4825C26.2912 14.8011 25.6529 15.268 25.1153 15.8566L23.9997 17.0775L22.8841 15.8566C21.7983 14.6682 20.3256 14.0006 18.79 14.0006C17.2544 14.0006 15.7817 14.6682 14.6958 15.8566C13.61 17.0449 13 18.6566 13 20.3372C13 22.0177 13.61 23.6295 14.6958 24.8178L15.8115 26.0387L22.5233 33.3842C23.3163 34.252 24.6832 34.252 25.4762 33.3842L32.188 26.0387L33.3036 24.8178C33.8414 24.2295 34.268 23.531 34.5591 22.7622C34.8502 21.9934 35 21.1694 35 20.3372C35 19.505 34.8502 18.681 34.5591 17.9122C34.268 17.1434 33.8414 16.4449 33.3036 15.8566Z" fill="#65D36E" stroke="#65D36E" stroke-width="2" stroke-linecap="round" stroke-linejoin="round"/>
</svg>
