<svg width="58" height="63" viewBox="0 0 58 63" fill="none" xmlns="http://www.w3.org/2000/svg">
<g opacity="0.4" clip-path="url(#clip0_1001_284)">
<path d="M30.3314 4.53176C30.1047 4.38621 29.8557 4.28915 29.5986 4.24613C29.3414 4.2031 29.0812 4.21496 28.8329 4.28102C28.5845 4.34708 28.3528 4.46605 28.151 4.63112C27.9493 4.7962 27.7813 5.00416 27.6569 5.24311L27.3986 5.73883L26.9281 5.43695C26.4702 5.14313 25.9312 5.05301 25.4296 5.18641C24.928 5.31981 24.505 5.66581 24.2535 6.14829C24.0021 6.63078 23.9429 7.21021 24.0889 7.75914C24.2349 8.30807 24.5741 8.78152 25.032 9.07534L25.5025 9.37722L28.3329 11.1934C28.6673 11.408 29.1138 11.2892 29.2974 10.9369L30.8516 7.95452L31.1099 7.4588C31.2345 7.21992 31.3132 6.9547 31.3415 6.6783C31.3697 6.40189 31.3471 6.11972 31.2748 5.8479C31.2025 5.57608 31.082 5.31994 30.9201 5.09412C30.7582 4.86829 30.5582 4.6772 30.3314 4.53176Z" fill="#65D36E" stroke="#65D36E" stroke-width="0.675977" stroke-linecap="round" stroke-linejoin="round"/>
</g>
<g opacity="0.6">
<path d="M36.4888 12.9462C36.2873 12.7255 36.0479 12.5504 35.7845 12.4309C35.5211 12.3115 35.2387 12.25 34.9536 12.25C34.6684 12.25 34.386 12.3115 34.1226 12.4309C33.8592 12.5504 33.6198 12.7255 33.4183 12.9462L32.9999 13.4041L32.5815 12.9462C32.1743 12.5006 31.6221 12.2502 31.0462 12.2502C30.4704 12.2502 29.9181 12.5006 29.5109 12.9462C29.1038 13.3918 28.875 13.9962 28.875 14.6264C28.875 15.2567 29.1038 15.8611 29.5109 16.3067L29.9293 16.7645L32.4462 19.5191C32.7436 19.8445 33.2562 19.8445 33.5536 19.5191L36.0705 16.7645L36.4888 16.3067C36.6905 16.0861 36.8505 15.8241 36.9597 15.5358C37.0688 15.2475 37.125 14.9385 37.125 14.6264C37.125 14.3144 37.0688 14.0054 36.9597 13.7171C36.8505 13.4288 36.6905 13.1668 36.4888 12.9462Z" fill="#65D36E" stroke="#65D36E" stroke-width="0.75" stroke-linecap="round" stroke-linejoin="round"/>
</g>
<g opacity="0.6">
<path d="M54.2697 24.604C54.1095 24.3321 53.9003 24.0991 53.6541 23.9183C53.4079 23.7375 53.1295 23.6125 52.8349 23.5505C52.5403 23.4884 52.2352 23.4905 51.937 23.5566C51.6388 23.6226 51.3533 23.7515 51.097 23.9356L50.5651 24.3176L50.2325 23.7535C49.9087 23.2044 49.3926 22.8255 48.7976 22.7002C48.2026 22.5748 47.5775 22.7133 47.0597 23.0851C46.542 23.4569 46.1741 24.0316 46.0369 24.6828C45.8997 25.3339 46.0045 26.0082 46.3282 26.5573L46.6608 27.1215L48.6619 30.5155C48.8983 30.9165 49.4279 31.0281 49.806 30.7565L53.0063 28.4583L53.5382 28.0763C53.7946 27.8922 54.017 27.6564 54.1925 27.3823C54.368 27.1081 54.4934 26.8011 54.5613 26.4786C54.6292 26.1562 54.6384 25.8247 54.5884 25.503C54.5384 25.1814 54.4301 24.8759 54.2697 24.604Z" fill="#65D36E" stroke="#65D36E" stroke-width="0.791955" stroke-linecap="round" stroke-linejoin="round"/>
</g>
<g opacity="0.4">
<path d="M17.4327 10.3573C17.2591 10.2041 17.0601 10.0891 16.8473 10.0191C16.6344 9.949 16.4118 9.92517 16.1922 9.94892C15.9726 9.97268 15.7602 10.0436 15.5672 10.1575C15.3743 10.2715 15.2045 10.4263 15.0677 10.6131L14.7836 11.0006L14.4232 10.6828C14.0724 10.3735 13.6262 10.2266 13.1826 10.2746C12.7391 10.3226 12.3346 10.5614 12.0581 10.9386C11.7816 11.3158 11.6557 11.8003 11.7082 12.2858C11.7607 12.7712 11.9873 13.2176 12.338 13.527L12.6984 13.8448L14.8665 15.7567C15.1227 15.9826 15.5175 15.9399 15.7195 15.6645L17.4286 13.3331L17.7127 12.9456C17.8497 12.7589 17.9511 12.5438 18.0111 12.3127C18.0712 12.0815 18.0887 11.8388 18.0627 11.5985C18.0367 11.3581 17.9677 11.1248 17.8596 10.9118C17.7515 10.6988 17.6065 10.5104 17.4327 10.3573Z" fill="#65D36E" stroke="#65D36E" stroke-width="0.581049" stroke-linecap="round" stroke-linejoin="round"/>
</g>
<g opacity="0.4">
<path d="M27.4857 14.6963C27.3325 14.4747 27.14 14.2893 26.9193 14.1507C26.6986 14.0121 26.4539 13.9229 26.1993 13.8883C25.9446 13.8537 25.6851 13.8744 25.4353 13.9491C25.1856 14.0238 24.9507 14.1511 24.7439 14.3237L24.3148 14.6818L23.9967 14.2222C23.6872 13.7749 23.2244 13.4844 22.7102 13.4145C22.196 13.3446 21.6725 13.5012 21.2549 13.8497C20.8372 14.1982 20.5596 14.7102 20.4832 15.2729C20.4067 15.8356 20.5377 16.4031 20.8472 16.8504L21.1652 17.31L23.0785 20.075C23.3046 20.4017 23.7623 20.4638 24.0673 20.2093L26.6489 18.055L27.078 17.697C27.2849 17.5244 27.4595 17.3099 27.592 17.0657C27.7244 16.8216 27.8121 16.5524 27.8499 16.2738C27.8878 15.9951 27.8751 15.7124 27.8126 15.4417C27.7501 15.171 27.6391 14.9177 27.4857 14.6963Z" fill="#65D36E" stroke="#65D36E" stroke-width="0.675858" stroke-linecap="round" stroke-linejoin="round"/>
</g>
<g opacity="0.4">
<path d="M50.75 12.5539C50.5872 12.3155 50.3822 12.1156 50.1465 11.9656C49.9109 11.8157 49.6493 11.7186 49.3767 11.6799C49.1041 11.6411 48.8258 11.6616 48.5577 11.74C48.2896 11.8185 48.037 11.9534 47.8144 12.1371L47.3522 12.518L47.0144 12.0235C46.6856 11.5422 46.1916 11.2279 45.6411 11.1497C45.0905 11.0715 44.5286 11.2359 44.0788 11.6067C43.629 11.9774 43.3283 12.5242 43.2427 13.1267C43.1572 13.7292 43.2938 14.3381 43.6226 14.8194L43.9605 15.3139L45.9928 18.289C46.233 18.6405 46.723 18.7101 47.0515 18.4394L49.8317 16.1476L50.2938 15.7666C50.5166 15.5831 50.7051 15.3544 50.8486 15.0936C50.9921 14.8327 51.0877 14.5449 51.1301 14.2466C51.1724 13.9482 51.1607 13.6452 51.0955 13.3547C51.0302 13.0643 50.9128 12.7922 50.75 12.5539Z" fill="#65D36E" stroke="#65D36E" stroke-width="0.724224" stroke-linecap="round" stroke-linejoin="round"/>
</g>
<g opacity="0.6">
<path d="M10.7583 19.2805C10.5148 19.1078 10.2441 18.9876 9.96167 18.9268C9.67926 18.8661 9.39065 18.8659 9.11235 18.9263C8.83404 18.9867 8.57149 19.1065 8.33968 19.2789C8.10788 19.4513 7.91137 19.6729 7.76138 19.931L7.45004 20.4665L6.94474 20.1082C6.45293 19.7595 5.86089 19.6322 5.29886 19.7542C4.73684 19.8761 4.25086 20.2375 3.94784 20.7587C3.64482 21.2798 3.54959 21.9182 3.68309 22.5333C3.81658 23.1484 4.16788 23.6898 4.65969 24.0385L5.16499 24.3967L8.20499 26.552C8.56417 26.8066 9.06446 26.698 9.28576 26.3174L11.1588 23.0958L11.4701 22.5604C11.6202 22.3023 11.7209 22.0128 11.7663 21.7083C11.8118 21.4038 11.8012 21.0903 11.7351 20.7857C11.669 20.4811 11.5487 20.1914 11.3811 19.9332C11.2135 19.6749 11.0018 19.4531 10.7583 19.2805Z" fill="#65D36E" stroke="#65D36E" stroke-width="0.749042" stroke-linecap="round" stroke-linejoin="round"/>
</g>
<g opacity="0.6">
<path d="M33.9074 26.4552C33.7394 26.2712 33.5399 26.1253 33.3204 26.0258C33.1009 25.9262 32.8656 25.875 32.628 25.875C32.3903 25.875 32.155 25.9262 31.9355 26.0258C31.716 26.1253 31.5165 26.2712 31.3485 26.4552L30.9999 26.8367L30.6513 26.4552C30.312 26.0838 29.8517 25.8752 29.3719 25.8752C28.892 25.8752 28.4318 26.0838 28.0925 26.4552C27.7531 26.8265 27.5625 27.3302 27.5625 27.8554C27.5625 28.3805 27.7531 28.8842 28.0925 29.2556L28.4411 29.6371L30.5385 31.9325C30.7863 32.2038 31.2135 32.2038 31.4613 31.9325L33.5587 29.6371L33.9074 29.2556C34.0754 29.0717 34.2088 28.8534 34.2997 28.6132C34.3907 28.3729 34.4375 28.1154 34.4375 27.8554C34.4375 27.5953 34.3907 27.3378 34.2997 27.0976C34.2088 26.8573 34.0754 26.639 33.9074 26.4552Z" fill="#65D36E" stroke="#65D36E" stroke-width="0.625" stroke-linecap="round" stroke-linejoin="round"/>
</g>
<g opacity="0.6">
<path d="M43.4915 20.6537C43.3355 20.4319 43.1403 20.2467 42.917 20.1089C42.6937 19.971 42.4467 19.8832 42.1901 19.8503C41.9334 19.8175 41.6723 19.8403 41.4214 19.9175C41.1706 19.9946 40.9351 20.1246 40.7282 20.3L40.299 20.6639L39.9752 20.2036C39.6601 19.7557 39.192 19.4668 38.6738 19.4005C38.1555 19.3341 37.6297 19.4958 37.2119 19.8499C36.7942 20.2041 36.5187 20.7216 36.4461 21.2888C36.3735 21.8559 36.5097 22.4262 36.8249 22.8741L37.1486 23.3343L39.0963 26.1031C39.3265 26.4302 39.7877 26.4893 40.0929 26.2307L42.6752 24.0417L43.1044 23.6779C43.3113 23.5026 43.4855 23.2853 43.6169 23.0384C43.7483 22.7915 43.8345 22.5199 43.8704 22.2391C43.9064 21.9582 43.8914 21.6737 43.8264 21.4017C43.7614 21.1296 43.6476 20.8755 43.4915 20.6537Z" fill="#65D36E" stroke="#65D36E" stroke-width="0.680447" stroke-linecap="round" stroke-linejoin="round"/>
</g>
<g opacity="0.4">
<path d="M44.4558 5.04774C44.3252 4.82765 44.1551 4.63924 43.9551 4.49326C43.7551 4.34728 43.5291 4.24659 43.2901 4.19696C43.0511 4.14733 42.8037 4.14971 42.5621 4.20399C42.3205 4.25826 42.0895 4.36336 41.8821 4.51327L41.4517 4.82421L41.1808 4.36763C40.917 3.92324 40.4977 3.61727 40.015 3.51704C39.5324 3.41681 39.0259 3.53052 38.607 3.83316C38.1882 4.13579 37.8912 4.60257 37.7815 5.1308C37.6718 5.65903 37.7584 6.20544 38.0221 6.64983L38.2931 7.10642L39.9232 9.85331C40.1159 10.1779 40.5455 10.2671 40.8514 10.0461L43.4405 8.17536L43.8708 7.86442C44.0783 7.71461 44.258 7.52291 44.3997 7.30026C44.5413 7.07761 44.6422 6.82838 44.6965 6.56681C44.7508 6.30524 44.7575 6.03646 44.7162 5.77581C44.6749 5.51516 44.5864 5.26776 44.4558 5.04774Z" fill="#65D36E" stroke="#65D36E" stroke-width="0.642047" stroke-linecap="round" stroke-linejoin="round"/>
</g>
<g opacity="0.4">
<path d="M21.3214 24.0676C21.1292 23.922 20.9138 23.8181 20.6874 23.7618C20.4609 23.7056 20.228 23.698 20.0018 23.7397C19.7756 23.7814 19.5606 23.8714 19.3691 24.0047C19.1776 24.1379 19.0133 24.3118 18.8856 24.5163L18.6207 24.9406L18.2219 24.6386C17.8338 24.3446 17.3591 24.2267 16.9023 24.3108C16.4455 24.395 16.044 24.6743 15.7861 25.0873C15.5282 25.5003 15.4351 26.0131 15.5272 26.5131C15.6193 27.013 15.8891 27.459 16.2772 27.753L16.6759 28.055L19.075 29.8723C19.3585 30.087 19.7651 30.0121 19.9534 29.7105L21.5475 27.1577L21.8124 26.7333C21.9402 26.5289 22.0288 26.2977 22.0733 26.0531C22.1177 25.8084 22.1171 25.5551 22.0715 25.3075C22.0259 25.06 21.9362 24.8231 21.8075 24.6103C21.6788 24.3976 21.5136 24.2132 21.3214 24.0676Z" fill="#65D36E" stroke="#65D36E" stroke-width="0.604951" stroke-linecap="round" stroke-linejoin="round"/>
</g>
<path d="M39.3036 30.8566C38.766 30.268 38.1278 29.8011 37.4253 29.4825C36.7228 29.164 35.9699 29 35.2095 29C34.4491 29 33.6961 29.164 32.9936 29.4825C32.2912 29.8011 31.6529 30.268 31.1153 30.8566L29.9997 32.0775L28.8841 30.8566C27.7983 29.6682 26.3256 29.0006 24.79 29.0006C23.2544 29.0006 21.7817 29.6682 20.6958 30.8566C19.61 32.0449 19 33.6566 19 35.3372C19 37.0177 19.61 38.6295 20.6958 39.8178L21.8115 41.0387L28.5233 48.3842C29.3163 49.252 30.6832 49.252 31.4762 48.3842L38.188 41.0387L39.3036 39.8178C39.8414 39.2295 40.268 38.531 40.5591 37.7622C40.8502 36.9934 41 36.1694 41 35.3372C41 34.505 40.8502 33.681 40.5591 32.9122C40.268 32.1434 39.8414 31.4449 39.3036 30.8566Z" fill="#65D36E" stroke="#65D36E" stroke-width="2" stroke-linecap="round" stroke-linejoin="round"/>
<defs>
<clipPath id="clip0_1001_284">
<rect width="10.8156" height="10.8156" fill="white" transform="translate(21.3839 4.16382) rotate(-14.8941)"/>
</clipPath>
</defs>
</svg>
