<svg width="48" height="48" viewBox="0 0 48 48" fill="none" xmlns="http://www.w3.org/2000/svg">
<path d="M31.2692 13.9985C30.6147 13.5436 29.8889 13.2296 29.1333 13.0745C28.3777 12.9194 27.6072 12.9263 26.8656 13.0946C26.1241 13.263 25.4262 13.5897 24.8117 14.0559C24.1972 14.5221 23.6782 15.1187 23.2843 15.8117L22.4667 17.2494L21.1084 16.3058C19.7864 15.3874 18.2024 15.0625 16.705 15.4025C15.2075 15.7426 13.9192 16.7197 13.1235 18.119C12.3277 19.5183 12.0898 21.2251 12.4619 22.8639C12.834 24.5028 13.7858 25.9394 15.1078 26.8578L16.4661 27.8014L24.6379 33.4782C25.6034 34.1489 26.9363 33.8462 27.5175 32.8243L32.4361 24.175L33.2536 22.7373C33.6478 22.0445 33.9092 21.2688 34.0228 20.4547C34.1364 19.6405 34.1 18.8038 33.9157 17.9922C33.7314 17.1807 33.4029 16.4103 32.9488 15.7251C32.4947 15.0398 31.924 14.4531 31.2692 13.9985Z" stroke="#B9B8B8" stroke-width="2" stroke-linecap="round" stroke-linejoin="round"/>
</svg>
